<svg width="35" height="28" viewBox="0 0 35 28" fill="none" xmlns="http://www.w3.org/2000/svg">
<path d="M29.75 0H5.25C3.85761 0 2.52226 0.553124 1.53769 1.53769C0.553124 2.52226 0 3.85761 0 5.25V22.75C0 24.1424 0.553124 25.4777 1.53769 26.4623C2.52226 27.4469 3.85761 28 5.25 28H29.75C31.1424 28 32.4777 27.4469 33.4623 26.4623C34.4469 25.4777 35 24.1424 35 22.75V5.25C35 3.85761 34.4469 2.52226 33.4623 1.53769C32.4777 0.553124 31.1424 0 29.75 0ZM28.5775 3.5L17.5 11.8125L6.4225 3.5H28.5775ZM29.75 24.5H5.25C4.78587 24.5 4.34075 24.3156 4.01256 23.9874C3.68437 23.6593 3.5 23.2141 3.5 22.75V5.6875L16.45 15.4C16.7529 15.6272 17.1214 15.75 17.5 15.75C17.8786 15.75 18.2471 15.6272 18.55 15.4L31.5 5.6875V22.75C31.5 23.2141 31.3156 23.6593 30.9874 23.9874C30.6593 24.3156 30.2141 24.5 29.75 24.5Z" fill="black"/>
</svg>
