<svg width="64" height="59" viewBox="0 0 64 59" fill="none" xmlns="http://www.w3.org/2000/svg">
<path fill-rule="evenodd" clip-rule="evenodd" d="M19.896 2.80496C23.0224 2.6743 24.0192 2.64526 31.9829 2.64526C39.9467 2.64526 40.9435 2.67672 44.0672 2.80496C47.1908 2.9332 49.323 3.38568 51.1887 4.0414C53.1423 4.71165 54.9147 5.75936 56.3806 7.11436C57.8732 8.44275 59.0245 10.0494 59.7602 11.8254C60.4851 13.5192 60.9808 15.4549 61.1248 18.2859C61.2687 21.129 61.3007 22.0339 61.3007 29.2614C61.3007 36.4914 61.266 37.3963 61.1248 40.2346C60.9835 43.0656 60.4851 45.0013 59.7602 46.695C59.0245 48.4713 57.8712 50.0806 56.3806 51.4109C54.9147 52.7659 53.1423 53.8112 51.1887 54.4791C49.323 55.1372 47.1908 55.5873 44.0725 55.7179C40.9435 55.8486 39.9467 55.8776 31.9829 55.8776C24.0192 55.8776 23.0224 55.8462 19.896 55.7179C16.7777 55.5897 14.6455 55.1372 12.7798 54.4791C10.8233 53.8111 9.05068 52.7641 7.58527 51.4109C6.09374 50.0817 4.93952 48.4732 4.20307 46.6974C3.48079 45.0037 2.98505 43.068 2.84113 40.237C2.69721 37.3939 2.66522 36.4889 2.66522 29.2614C2.66522 22.0315 2.69987 21.1266 2.84113 18.2907C2.98239 15.4549 3.48079 13.5192 4.20307 11.8254C4.9406 10.0496 6.09571 8.44109 7.58793 7.11194C9.05126 5.75815 10.8221 4.7103 12.7772 4.0414C14.6428 3.38568 16.775 2.93562 19.8934 2.80496H19.896ZM43.83 7.59587C40.7383 7.46763 39.8108 7.44101 31.9829 7.44101C24.1551 7.44101 23.2276 7.46763 20.1359 7.59587C17.2761 7.71444 15.7249 8.14755 14.6908 8.51292C13.3235 8.99685 12.3454 9.57031 11.3193 10.5019C10.3466 11.361 9.59801 12.4068 9.12845 13.5627C8.72599 14.5016 8.24892 15.9098 8.11832 18.5061C7.97706 21.3129 7.94774 22.1549 7.94774 29.2614C7.94774 36.368 7.97706 37.21 8.11832 40.0168C8.24892 42.6131 8.72599 44.0213 9.12845 44.9601C9.59753 46.1143 10.3465 47.162 11.3193 48.021C12.2654 48.9042 13.4195 49.5841 14.6908 50.01C15.7249 50.3753 17.2761 50.8084 20.1359 50.927C23.2276 51.0552 24.1524 51.0819 31.9829 51.0819C39.8134 51.0819 40.7383 51.0552 43.83 50.927C46.6898 50.8084 48.241 50.3753 49.2751 50.01C50.6423 49.526 51.6205 48.9526 52.6466 48.021C53.6194 47.162 54.3684 46.1143 54.8374 44.9601C55.2399 44.0213 55.717 42.6131 55.8476 40.0168C55.9888 37.21 56.0181 36.368 56.0181 29.2614C56.0181 22.1549 55.9888 21.3129 55.8476 18.5061C55.717 15.9098 55.2399 14.5016 54.8374 13.5627C54.3044 12.3215 53.6727 11.4334 52.6466 10.5019C51.7002 9.61887 50.5483 8.93929 49.2751 8.51292C48.241 8.14755 46.6898 7.71444 43.83 7.59587ZM28.2383 37.4665C30.3296 38.2568 32.6583 38.3635 34.8266 37.7683C36.9949 37.173 38.8683 35.9129 40.1269 34.203C41.3855 32.4931 41.9511 30.4395 41.7272 28.393C41.5033 26.3466 40.5038 24.4342 38.8993 22.9824C37.8764 22.0544 36.6397 21.3439 35.2781 20.9019C33.9165 20.4599 32.4638 20.2975 31.0248 20.4264C29.5857 20.5552 28.196 20.9721 26.9558 21.6471C25.7155 22.3221 24.6555 23.2383 23.8521 24.3298C23.0487 25.4213 22.5218 26.661 22.3095 27.9596C22.0971 29.2581 22.2046 30.5833 22.624 31.8396C23.0435 33.096 23.7646 34.2522 24.7354 35.2252C25.7062 36.1982 26.9025 36.9636 28.2383 37.4665ZM21.3273 19.5877C22.7266 18.3173 24.3878 17.3096 26.2161 16.622C28.0444 15.9345 30.004 15.5807 31.9829 15.5807C33.9619 15.5807 35.9214 15.9345 37.7497 16.622C39.578 17.3096 41.2393 18.3173 42.6386 19.5877C44.0379 20.858 45.1479 22.3662 45.9052 24.026C46.6625 25.6859 47.0523 27.4649 47.0523 29.2614C47.0523 31.058 46.6625 32.837 45.9052 34.4968C45.1479 36.1567 44.0379 37.6648 42.6386 38.9352C39.8125 41.5009 35.9796 42.9422 31.9829 42.9422C27.9863 42.9422 24.1533 41.5009 21.3273 38.9352C18.5012 36.3696 16.9136 32.8898 16.9136 29.2614C16.9136 25.6331 18.5012 22.1533 21.3273 19.5877ZM50.3945 17.6181C50.7412 17.3211 51.0188 16.964 51.2108 16.5679C51.4029 16.1718 51.5054 15.7447 51.5123 15.312C51.5193 14.8792 51.4305 14.4497 51.2513 14.0486C51.0721 13.6476 50.8061 13.2833 50.469 12.9773C50.1319 12.6713 49.7306 12.4298 49.2889 12.2671C48.8472 12.1044 48.374 12.0238 47.8973 12.0301C47.4207 12.0364 46.9503 12.1295 46.5139 12.3038C46.0776 12.4781 45.6843 12.7301 45.3572 13.0449C44.721 13.6572 44.3727 14.4704 44.3862 15.312C44.3997 16.1536 44.774 16.9572 45.4295 17.5524C46.0851 18.1475 46.9703 18.4873 47.8973 18.4995C48.8243 18.5118 49.7201 18.1956 50.3945 17.6181Z" fill="black"/>
</svg>
