<svg width="26" height="36" viewBox="0 0 26 36" fill="none" xmlns="http://www.w3.org/2000/svg">
<path d="M13 17.125C11.8397 17.125 10.7269 16.6641 9.90641 15.8436C9.08594 15.0231 8.625 13.9103 8.625 12.75C8.625 11.5897 9.08594 10.4769 9.90641 9.65641C10.7269 8.83594 11.8397 8.375 13 8.375C14.1603 8.375 15.2731 8.83594 16.0936 9.65641C16.9141 10.4769 17.375 11.5897 17.375 12.75C17.375 13.3245 17.2618 13.8934 17.042 14.4242C16.8221 14.955 16.4998 15.4373 16.0936 15.8436C15.6873 16.2498 15.205 16.5721 14.6742 16.792C14.1434 17.0118 13.5745 17.125 13 17.125ZM13 0.5C9.7511 0.5 6.63526 1.79062 4.33794 4.08794C2.04062 6.38526 0.75 9.5011 0.75 12.75C0.75 21.9375 13 35.5 13 35.5C13 35.5 25.25 21.9375 25.25 12.75C25.25 9.5011 23.9594 6.38526 21.6621 4.08794C19.3647 1.79062 16.2489 0.5 13 0.5Z" fill="black"/>
</svg>
