<svg width="64" height="59" viewBox="0 0 64 59" fill="none" xmlns="http://www.w3.org/2000/svg">
<g clip-path="url(#clip0_69_125)">
<path fill-rule="evenodd" clip-rule="evenodd" d="M46.4153 35.1999C45.621 34.8394 41.7271 33.1021 41.0022 32.8601C40.2772 32.6206 39.7495 32.502 39.2191 33.2231C38.6914 33.9393 37.1749 35.5605 36.7138 36.0395C36.25 36.5211 35.7889 36.5791 34.9974 36.221C34.2058 35.8581 31.6525 35.1007 28.6274 32.652C26.274 30.7453 24.6829 28.391 24.2218 27.67C23.7607 26.9513 24.1711 26.5618 24.5683 26.2037C24.9254 25.8818 25.3598 25.364 25.757 24.9454C26.1541 24.5244 26.2847 24.2244 26.5485 23.7429C26.8151 23.2638 26.6818 22.8452 26.4819 22.4847C26.2847 22.1241 24.7015 18.5842 24.0405 17.1445C23.3982 15.7435 22.7452 15.9347 22.2601 15.9105C21.7964 15.8911 21.2687 15.8863 20.741 15.8863C20.2132 15.8863 19.355 16.0653 18.6301 16.7864C17.9025 17.505 15.8582 19.2447 15.8582 22.7847C15.8582 26.3222 18.694 29.7412 19.0912 30.2227C19.4883 30.7018 24.6749 37.9656 32.62 41.0797C34.5123 41.8201 35.9862 42.2629 37.1349 42.592C39.0326 43.1412 40.7596 43.0638 42.1242 42.8775C43.6434 42.6718 46.8097 41.1378 47.4707 39.4585C48.129 37.7793 48.129 36.3396 47.9318 36.0395C47.7346 35.7395 47.2069 35.5605 46.4126 35.1999H46.4153ZM31.9643 53.1126H31.9537C27.2346 53.1134 22.6023 51.9617 18.5421 49.7783L17.5826 49.2605L7.60928 51.6366L10.2719 42.8097L9.64553 41.9048C7.0073 38.0923 5.61113 33.6798 5.61834 29.1774C5.62367 15.9903 17.4414 5.26157 31.975 5.26157C39.0112 5.26157 45.6264 7.75381 50.5997 12.2737C53.0528 14.4915 54.997 17.1289 56.3201 20.0333C57.6431 22.9377 58.3187 26.0514 58.3076 29.1944C58.3023 42.3815 46.4846 53.1126 31.9643 53.1126ZM54.3844 8.84024C51.4478 6.15666 47.9538 4.02885 44.1048 2.58011C40.2558 1.13138 36.1283 0.390528 31.9616 0.40049C14.4936 0.40049 0.271855 13.3093 0.266525 29.175C0.25843 34.2242 1.71742 39.186 4.49627 43.5598L0 58.4721L16.8017 54.47C21.4496 56.769 26.6581 57.9736 31.951 57.9737H31.9643C49.4324 57.9737 63.6541 45.0648 63.6594 29.1968C63.6723 25.4155 62.8592 21.6695 61.2672 18.1753C59.6752 14.6812 57.3358 11.5083 54.3844 8.84024Z" fill="black"/>
</g>
<defs>
<clipPath id="clip0_69_125">
<rect width="63.9659" height="58.0717" fill="white" transform="translate(0 0.400391)"/>
</clipPath>
</defs>
</svg>
